<svg xmlns="http://www.w3.org/2000/svg" viewBox="0 0 200 200">
  <defs>
    <linearGradient id="skyGradient" x1="0%" y1="0%" x2="100%" y2="100%">
      <stop offset="0%" style="stop-color:#7dd3fc;stop-opacity:1"/>
      <stop offset="100%" style="stop-color:#0ea5e9;stop-opacity:1"/>
    </linearGradient>
    <linearGradient id="wingGradient" x1="0%" y1="0%" x2="100%" y2="100%">
      <stop offset="0%" style="stop-color:#fbbf24;stop-opacity:1"/>
      <stop offset="100%" style="stop-color:#f59e0b;stop-opacity:1"/>
    </linearGradient>
    <linearGradient id="nimbleGradient" x1="0%" y1="0%" x2="100%" y2="100%">
      <stop offset="0%" style="stop-color:#fbbf24;stop-opacity:1"/>
      <stop offset="100%" style="stop-color:#d97706;stop-opacity:1"/>
    </linearGradient>
    <linearGradient id="crownGradient" x1="0%" y1="0%" x2="100%" y2="100%">
      <stop offset="0%" style="stop-color:#fde047;stop-opacity:1"/>
      <stop offset="100%" style="stop-color:#facc15;stop-opacity:1"/>
    </linearGradient>
  </defs>
  <!-- Background elements -->
  <circle cx="100" cy="100" r="90" fill="url(#skyGradient)"/>
  <!-- Dynamic swoosh elements -->
  <path d="M20 100 C40 80, 80 70, 120 90 S160 110, 180 90" stroke="#38bdf8" stroke-width="8" fill="none" stroke-linecap="round"/>
  <path d="M25 120 C45 100, 85 90, 125 110 S165 130, 175 110" stroke-dasharray="4,4" stroke="#0284c7" stroke-width="6" fill="none" stroke-linecap="round"/>
  <!-- Main package body with Nim golden yellow -->
  <path d="M55 105 L100 135 L145 105 L100 75 Z" fill="url(#nimbleGradient)"/>
  <!-- Wing elements with Nim yellow -->
  <path d="M100 75 L145 105 C125 55, 75 55, 55 105 Z" fill="url(#wingGradient)"/>
  <!-- Abstract bird elements -->
  <path d="M80 80 C100 45, 120 45, 140 80" stroke="#f472b6" stroke-width="12" fill="none" stroke-linecap="round"/>
  <path d="M85 70 C100 45, 115 45, 135 70" stroke="#fbbf24" stroke-width="8" fill="none" stroke-linecap="round"/>
  <!-- Nim crown elements -->
  <polygon points="90,80 95,70 100,75 105,70 110,80 100,85" fill="url(#crownGradient)"/>
  <polygon points="85,85 90,75 95,80 100,75 105,80 100,90" fill="url(#crownGradient)" opacity="0.8"/>
  <!-- Crown jewels -->
  <circle cx="95" cy="75" r="2" fill="#dc2626"/>
  <circle cx="105" cy="75" r="2" fill="#dc2626"/>
  <circle cx="100" cy="70" r="2" fill="#7c3aed"/>
  <!-- Decorative accents with Nim colors -->
  <circle cx="70" cy="90" r="4" fill="#fbbf24"/>
  <circle cx="130" cy="90" r="4" fill="#fbbf24"/>
  <!-- Speed lines with golden accent -->
  <path d="M45 85 L65 80" stroke="#fbbf24" stroke-width="3" stroke-linecap="round"/>
  <path d="M135 80 L155 85" stroke="#fbbf24" stroke-width="3" stroke-linecap="round"/>
  <path d="M40 100 L60 95" stroke="#38bdf8" stroke-width="3" stroke-linecap="round"/>
  <path d="M140 95 L160 100" stroke="#38bdf8" stroke-width="3" stroke-linecap="round"/>
  <!-- Nimble package details -->
  <rect x="92" y="100" width="16" height="10" fill="#fde047" opacity="0.7" rx="2"/>
  <rect x="94" y="102" width="12" height="6" fill="#d97706" opacity="0.8" rx="1"/>
  <!-- Nim efficiency lightning -->
  <path d="M100 98 L102 103 L98 103 L100 108" stroke="#fde047" stroke-width="2" fill="none" stroke-linejoin="round"/>
</svg>